# xmcd
#
# Track frame offsets: 
#        150
#        19502
#        41221
#        58906
#        76396
#        92383
#        109852
#        128760
#        149480
#        167530
#        186506
#
# Disc length: 2678 seconds
#
# Revision: 3
# Processed by: cddbd v1.5.2PL0 Copyright (c) Steve Scherf et al.
# Submitted via: ExactAudioCopyFreeDBPlugin 1.0
#
DISCID=930a740b
DTITLE=Lhasa - La Llorona
DYEAR=1900
DGENRE=
TTITLE0=La face contre le mur
TTITLE1=La Celestine
TTITLE2=Le d sert
TTITLE3=C'est pour  a que je reste
TTITLE4=Le payande
TTITLE5=Les poissons
TTITLE6=Floricento
TTITLE7=D daigneuse
TTITLE8=L'oiseau
TTITLE9=La v rit
TTITLE10=L'arbre de l'oubli
EXTD=
EXTT0=
EXTT1=
EXTT2=
EXTT3=
EXTT4=
EXTT5=
EXTT6=
EXTT7=
EXTT8=
EXTT9=
EXTT10=
PLAYORDER=
